<!DOCTYPE svg PUBLIC "-//W3C//DTD SVG 1.1//EN" "http://www.w3.org/Graphics/SVG/1.1/DTD/svg11.dtd">
<!-- Uploaded to: SVG Repo, www.svgrepo.com, Transformed by: SVG Repo Mixer Tools -->
<svg width="64px" height="64px" viewBox="0 0 24 24" fill="none" xmlns="http://www.w3.org/2000/svg">
<g id="SVGRepo_bgCarrier" stroke-width="0"/>
<g id="SVGRepo_tracerCarrier" stroke-linecap="round" stroke-linejoin="round"/>
<g id="SVGRepo_iconCarrier"> <path d="M11 18C11 18.9319 11 19.3978 11.1522 19.7654C11.3552 20.2554 11.7446 20.6448 12.2346 20.8478C12.6022 21 13.0681 21 14 21H18C18.9319 21 19.3978 21 19.7654 20.8478C20.2554 20.6448 20.6448 20.2554 20.8478 19.7654C21 19.3978 21 18.9319 21 18C21 17.0681 21 16.6022 20.8478 16.2346C20.6448 15.7446 20.2554 15.3552 19.7654 15.1522C19.3978 15 18.9319 15 18 15H14C13.0681 15 12.6022 15 12.2346 15.1522C11.7446 15.3552 11.3552 15.7446 11.1522 16.2346C11 16.6022 11 17.0681 11 18ZM11 18H9.2C8.07989 18 7.51984 18 7.09202 17.782C6.71569 17.5903 6.40973 17.2843 6.21799 16.908C6 16.4802 6 15.9201 6 14.8V9M6 9H18C18.9319 9 19.3978 9 19.7654 8.84776C20.2554 8.64477 20.6448 8.25542 20.8478 7.76537C21 7.39782 21 6.93188 21 6C21 5.06812 21 4.60218 20.8478 4.23463C20.6448 3.74458 20.2554 3.35523 19.7654 3.15224C19.3978 3 18.9319 3 18 3H6C5.06812 3 4.60218 3 4.23463 3.15224C3.74458 3.35523 3.35523 3.74458 3.15224 4.23463C3 4.60218 3 5.06812 3 6C3 6.93188 3 7.39782 3.15224 7.76537C3.35523 8.25542 3.74458 8.64477 4.23463 8.84776C4.60218 9 5.06812 9 6 9Z" stroke="#000000" stroke-width="2" stroke-linecap="round" stroke-linejoin="round"/> </g>
</svg>