<!DOCTYPE svg PUBLIC "-//W3C//DTD SVG 1.1//EN" "http://www.w3.org/Graphics/SVG/1.1/DTD/svg11.dtd">
<!-- Uploaded to: SVG Repo, www.svgrepo.com, Transformed by: SVG Repo Mixer Tools -->
<svg width="800px" height="800px" viewBox="0 0 20 20" xmlns="http://www.w3.org/2000/svg" fill="#000000">
<g id="SVGRepo_bgCarrier" stroke-width="0"/>
<g id="SVGRepo_tracerCarrier" stroke-linecap="round" stroke-linejoin="round"/>
<g id="SVGRepo_iconCarrier"> <rect x="0" fill="none" width="20" height="20"/> <g> <path d="M12 2l4 4v12H4V2h8zm-1 4V3H5v3h6zM8 8V7H5v1h3zm3 0V7H9v1h2zm4 0V7h-3v1h3zm-7 2V9H5v1h3zm3 0V9H9v1h2zm4 0V9h-3v1h3zm-7 2v-1H5v1h3zm3 0v-1H9v1h2zm4 0v-1h-3v1h3zm-7 2v-1H5v1h3zm3 0v-1H9v1h2zm4 0v-1h-3v1h3zm-7 2v-1H5v1h3zm3 0v-1H9v1h2z"/> </g> </g>
</svg>